<?xml version="1.0" encoding="utf-8"?><!DOCTYPE svg PUBLIC "-//W3C//DTD SVG 1.1//EN" "http://www.w3.org/Graphics/SVG/1.1/DTD/svg11.dtd"><svg version="1.1" xmlns="http://www.w3.org/2000/svg" x="0px" y="0px" viewBox="0 0 50.793 66.701" style="enable-background:new 0 0 50.793 66.701;"><style type="text/css"><![CDATA[ .st0{fill:#C7B299;stroke:#C7B299;stroke-miterlimit:10;} .st1{stroke:#000000;stroke-miterlimit:10;} ]]></style><g id="Layer_1"></g><g id="Layer_2"><g><path class="st1" d="M43.094,8.525c1.055,0.049,2.243,0.157,3.563,0.324c1.319,0.169,2.315,0.373,2.988,0.612 c0.432,0.144,0.647,0.385,0.647,0.72c0,0.48-0.12,0.912-0.359,1.296c-0.241,0.385-0.48,0.625-0.72,0.721 c-0.48-0.096-1.165-0.155-2.053-0.181c-0.889-0.023-1.776-0.047-2.664-0.071c-0.889-0.024-1.596-0.036-2.124-0.036 c-0.624,0-1.704,0.012-3.239,0.036c-1.537,0.024-3.337,0.048-5.4,0.071c-2.064,0.025-4.212,0.049-6.444,0.072 c-2.231,0.024-4.38,0.061-6.443,0.108c-2.064,0.048-3.853,0.084-5.364,0.107c-1.512,0.025-2.556,0.061-3.132,0.108 c-0.673,0.048-1.597,0.192-2.772,0.432c-1.176,0.241-2.1,0.48-2.771,0.72c-1.008-0.239-2.064-0.623-3.168-1.151 c-1.105-0.528-2.064-1.056-2.88-1.584c-0.241-0.145-0.313-0.312-0.216-0.504l0.432-0.864C1.981,9.654,3.157,9.811,4.501,9.93 c1.344,0.12,2.424,0.18,3.24,0.18c0.576,0,1.68,0,3.313,0c1.631,0,3.588-0.011,5.868-0.035c2.278-0.024,4.667-0.048,7.163-0.072 c2.496-0.023,4.907-0.06,7.236-0.108c2.328-0.047,4.344-0.096,6.048-0.144c1.703-0.048,2.868-0.096,3.492-0.145L43.094,8.525z M13.501,57.773H9.47v-4.535c-0.625-0.432-1.393-0.816-2.305-1.152c-0.912-0.334-1.848-0.6-2.808-0.791l0.288-1.369 c0.047-0.238,0.264-0.359,0.648-0.359c0.72,0,1.548,0.025,2.484,0.072c0.936,0.049,1.847,0.107,2.735,0.18 c0.888,0.072,1.595,0.18,2.124,0.324c0.672,0.145,1.008,0.553,1.008,1.225l-0.145,3.023V57.773z M15.446,66.199 c-2.209,0-3.757-0.396-4.645-1.189c-0.889-0.791-1.332-2.148-1.332-4.068v-5.256h4.031v6.266c0,0.623,0.133,1.09,0.396,1.402 s0.731,0.469,1.404,0.469L15.446,66.199z M41.365,25.733c0,2.257-0.684,4.188-2.052,5.797s-3.217,2.844-5.544,3.708 c-2.329,0.863-4.957,1.296-7.884,1.296c-2.88,0-5.497-0.434-7.848-1.296c-2.354-0.864-4.213-2.1-5.58-3.708 c-1.368-1.608-2.053-3.54-2.053-5.797c0-2.255,0.685-4.187,2.053-5.796c1.367-1.607,3.227-2.844,5.58-3.708 c2.351-0.863,4.968-1.296,7.848-1.296c2.927,0,5.555,0.433,7.884,1.296c2.327,0.864,4.176,2.101,5.544,3.708 C40.682,21.547,41.365,23.479,41.365,25.733z M14.294,0.534c2.352,0.336,4.716,0.601,7.092,0.792 c2.376,0.192,4.68,0.313,6.912,0.359c2.231,0.049,4.308,0.072,6.228,0.072c0.479,0,0.768,0.192,0.864,0.576 c0.047,0.144,0.071,0.349,0.071,0.612s-0.012,0.516-0.035,0.756c-0.025,0.24-0.085,0.432-0.181,0.575 c-0.048,0.192-0.156,0.313-0.323,0.36c-0.169,0.049-0.35,0.072-0.54,0.072c-1.537,0-3.204,0.024-5.005,0.072 c-1.8,0.048-3.552,0.107-5.255,0.18c-1.705,0.072-3.157,0.156-4.356,0.252c-0.528,0-0.937-0.072-1.224-0.216 c-0.769-0.384-1.561-0.888-2.377-1.513c-0.816-0.623-1.56-1.296-2.231-2.016c-0.097-0.144-0.12-0.288-0.071-0.432L14.294,0.534z M37.405,25.733c0-2.688-1.116-4.739-3.348-6.155c-2.232-1.416-4.957-2.124-8.172-2.124c-3.217,0-5.939,0.708-8.172,2.124 s-3.348,3.468-3.348,6.155c0,2.736,1.115,4.801,3.348,6.192c2.232,1.393,4.955,2.088,8.172,2.088c3.215,0,5.939-0.695,8.172-2.088 C36.289,30.534,37.405,28.47,37.405,25.733z M47.27,66.054l-31.823,0.145l-0.145-2.377c0.959,0,2.268,0,3.924,0s3.456,0,5.4,0 c1.943,0,3.875-0.012,5.796-0.035c1.919-0.025,3.672-0.049,5.256-0.072c1.584-0.025,2.808-0.061,3.672-0.109l2.088-1.15 c1.008,0,2.171,0.047,3.492,0.143c1.319,0.096,2.291,0.217,2.916,0.361c0.527,0.096,0.792,0.359,0.792,0.791 c0,0.527-0.072,0.959-0.216,1.297c-0.145,0.334-0.288,0.576-0.433,0.719C47.797,65.957,47.558,66.054,47.27,66.054z M21.493,41.501c0.145-0.24,0.36-0.334,0.648-0.287c0.911,0.191,1.859,0.467,2.844,0.828c0.983,0.359,1.896,0.768,2.736,1.223 c0.839,0.457,1.499,0.9,1.979,1.332c0.433,0.289,0.648,0.721,0.648,1.297c0,0.336-0.145,0.744-0.433,1.225 c-0.287,0.48-0.552,0.84-0.792,1.08s-0.528,0.359-0.863,0.359c-0.337,0-0.721-0.061-1.152-0.18s-0.769-0.275-1.008-0.469 c-0.241-0.816-0.841-1.738-1.8-2.771c-0.961-1.031-2.064-1.955-3.313-2.771L21.493,41.501z"/></g></g></svg>